<svg width="50" height="16" viewBox="0 0 50 16" fill="none" xmlns="http://www.w3.org/2000/svg">
<path d="M5.74572 9.68732H8.35935L9.67327 11.3777L10.9659 12.8833L13.402 15.9373H10.5326L8.85651 13.8777L7.99714 12.6561L5.74572 9.68732ZM13.6221 7.47141C13.6221 9.05759 13.3215 10.407 12.7201 11.5197C12.1236 12.6324 11.3092 13.4823 10.277 14.0694C9.2495 14.6518 8.0942 14.943 6.81106 14.943C5.51844 14.943 4.35841 14.6494 3.33094 14.0623C2.30348 13.4752 1.49146 12.6253 0.894864 11.5126C0.298273 10.3999 -2.21878e-05 9.05285 -2.21878e-05 7.47141C-2.21878e-05 5.88524 0.298273 4.53581 0.894864 3.42312C1.49146 2.31043 2.30348 1.46289 3.33094 0.880504C4.35841 0.293383 5.51844 -0.000178099 6.81106 -0.000178099C8.0942 -0.000178099 9.2495 0.293383 10.277 0.880504C11.3092 1.46289 12.1236 2.31043 12.7201 3.42312C13.3215 4.53581 13.6221 5.88524 13.6221 7.47141ZM10.5042 7.47141C10.5042 6.44395 10.3504 5.57747 10.0426 4.87198C9.73956 4.16649 9.31106 3.63145 8.75708 3.26687C8.2031 2.90228 7.55443 2.71999 6.81106 2.71999C6.06769 2.71999 5.41901 2.90228 4.86504 3.26687C4.31106 3.63145 3.88019 4.16649 3.57242 4.87198C3.26939 5.57747 3.11788 6.44395 3.11788 7.47141C3.11788 8.49888 3.26939 9.36535 3.57242 10.0708C3.88019 10.7763 4.31106 11.3114 4.86504 11.676C5.41901 12.0405 6.06769 12.2228 6.81106 12.2228C7.55443 12.2228 8.2031 12.0405 8.75708 11.676C9.31106 11.3114 9.73956 10.7763 10.0426 10.0708C10.3504 9.36535 10.5042 8.49888 10.5042 7.47141ZM19.8657 14.9572C18.7436 14.9572 17.7777 14.7299 16.968 14.2754C16.1631 13.8161 15.5428 13.1674 15.1072 12.3294C14.6716 11.4866 14.4538 10.4899 14.4538 9.33931C14.4538 8.21715 14.6716 7.2323 15.1072 6.38477C15.5428 5.53723 16.156 4.87672 16.9467 4.40323C17.7422 3.92975 18.6749 3.693 19.745 3.693C20.4647 3.693 21.1347 3.80901 21.7549 4.04102C22.3799 4.26829 22.9245 4.61156 23.3885 5.07085C23.8572 5.53013 24.2218 6.10778 24.4822 6.8038C24.7426 7.49509 24.8728 8.30475 24.8728 9.23278V10.0637H15.6612V8.18874H22.0248C22.0248 7.75314 21.9301 7.36725 21.7407 7.03107C21.5514 6.6949 21.2886 6.43211 20.9524 6.24272C20.621 6.04859 20.2351 5.95153 19.7947 5.95153C19.3354 5.95153 18.9282 6.05806 18.5731 6.27113C18.2228 6.47946 17.9481 6.76119 17.7493 7.1163C17.5504 7.46668 17.4486 7.8573 17.4439 8.28817V10.0708C17.4439 10.6106 17.5433 11.077 17.7422 11.47C17.9458 11.863 18.2322 12.166 18.6015 12.3791C18.9709 12.5922 19.4088 12.6987 19.9155 12.6987C20.2516 12.6987 20.5594 12.6513 20.8388 12.5566C21.1181 12.4619 21.3572 12.3199 21.5561 12.1305C21.7549 11.9411 21.9065 11.7091 22.0106 11.4345L24.8089 11.6191C24.6669 12.2915 24.3757 12.8786 23.9353 13.3805C23.4997 13.8777 22.9363 14.2659 22.245 14.5453C21.5585 14.8199 20.7654 14.9572 19.8657 14.9572ZM28.9236 0.198686V14.7441H25.8981V0.198686H28.9236ZM39.4748 6.94585L36.7049 7.1163C36.6575 6.87956 36.5557 6.66649 36.3995 6.4771C36.2432 6.28297 36.0373 6.12908 35.7816 6.01545C35.5306 5.89708 35.23 5.83789 34.8796 5.83789C34.4108 5.83789 34.0155 5.93732 33.6935 6.13619C33.3715 6.33031 33.2106 6.59073 33.2106 6.91744C33.2106 7.17785 33.3147 7.39802 33.5231 7.57795C33.7314 7.75787 34.0889 7.90228 34.5955 8.01119L36.5699 8.40891C37.6305 8.62672 38.4213 8.97709 38.9421 9.46005C39.4629 9.943 39.7233 10.5775 39.7233 11.3635C39.7233 12.0784 39.5126 12.7058 39.0912 13.2456C38.6746 13.7853 38.1017 14.2067 37.3725 14.5098C36.6481 14.8081 35.8124 14.9572 34.8654 14.9572C33.4213 14.9572 32.2707 14.6565 31.4137 14.0552C30.5614 13.4492 30.0619 12.6253 29.9151 11.5836L32.891 11.4274C32.9809 11.8677 33.1987 12.2039 33.5444 12.4359C33.89 12.6632 34.3327 12.7768 34.8725 12.7768C35.4028 12.7768 35.8289 12.675 36.1509 12.4714C36.4776 12.2631 36.6433 11.9956 36.6481 11.6689C36.6433 11.3942 36.5273 11.1693 36.3 10.9941C36.0728 10.8142 35.7224 10.6769 35.2489 10.5822L33.3597 10.2058C32.2944 9.99272 31.5013 9.6234 30.9804 9.09783C30.4643 8.57227 30.2063 7.90228 30.2063 7.08789C30.2063 6.38713 30.3957 5.78344 30.7745 5.27681C31.158 4.77018 31.6954 4.37956 32.3867 4.10494C33.0827 3.83031 33.8971 3.693 34.8299 3.693C36.2077 3.693 37.292 3.9842 38.0827 4.56658C38.8782 5.14897 39.3422 5.94206 39.4748 6.94585ZM43.7901 14.9501C43.0941 14.9501 42.4738 14.8294 41.9293 14.5879C41.3848 14.3417 40.9539 13.9795 40.6367 13.5012C40.3242 13.0183 40.1679 12.417 40.1679 11.6973C40.1679 11.0912 40.2792 10.5822 40.5018 10.1703C40.7243 9.75835 41.0273 9.42691 41.4108 9.17596C41.7944 8.92501 42.23 8.73562 42.7177 8.60778C43.2101 8.47994 43.7262 8.38997 44.266 8.33789C44.9004 8.2716 45.4118 8.21005 45.8 8.15323C46.1883 8.09168 46.47 8.00172 46.6452 7.88335C46.8204 7.76497 46.908 7.58978 46.908 7.35778V7.31516C46.908 6.86535 46.766 6.51734 46.4819 6.27113C46.2025 6.02492 45.8048 5.90181 45.2887 5.90181C44.7442 5.90181 44.3109 6.02255 43.989 6.26403C43.667 6.50077 43.4539 6.79906 43.3498 7.15891L40.5515 6.93164C40.6935 6.26876 40.9729 5.69584 41.3895 5.21289C41.8062 4.7252 42.3436 4.35115 43.0018 4.09073C43.6646 3.82558 44.4317 3.693 45.3029 3.693C45.909 3.693 46.489 3.76403 47.0429 3.90607C47.6017 4.04812 48.0965 4.26829 48.5273 4.56658C48.9629 4.86488 49.3062 5.2484 49.5572 5.71715C49.8081 6.18117 49.9336 6.73751 49.9336 7.38619V14.7441H47.0643V13.2314H46.979C46.8038 13.5723 46.5695 13.8729 46.2759 14.1333C45.9823 14.389 45.6296 14.5903 45.2177 14.737C44.8057 14.8791 44.3299 14.9501 43.7901 14.9501ZM44.6566 12.862C45.1017 12.862 45.4947 12.7744 45.8356 12.5993C46.1765 12.4193 46.444 12.1779 46.6381 11.8748C46.8322 11.5718 46.9293 11.2285 46.9293 10.845V9.68732C46.8346 9.74888 46.7044 9.80569 46.5387 9.85778C46.3777 9.90513 46.1954 9.95011 45.9918 9.99272C45.7882 10.0306 45.5846 10.0661 45.381 10.0993C45.1774 10.1277 44.9928 10.1537 44.827 10.1774C44.4719 10.2295 44.1618 10.3123 43.8966 10.426C43.6315 10.5396 43.4255 10.6935 43.2787 10.8876C43.132 11.077 43.0586 11.3137 43.0586 11.5978C43.0586 12.0098 43.2077 12.3246 43.506 12.5424C43.809 12.7555 44.1926 12.862 44.6566 12.862Z" fill="url(#paint0_linear_189_47204)"/>
<defs>
<linearGradient id="paint0_linear_189_47204" x1="-1.00854" y1="7.74414" x2="51.9915" y2="7.74414" gradientUnits="userSpaceOnUse">
<stop stop-color="#00D4FF"/>
<stop offset="0.5" stop-color="#A855F7"/>
<stop offset="1" stop-color="#EC4899"/>
</linearGradient>
</defs>
</svg>